<?xml version="1.0" standalone="no"?><!DOCTYPE svg PUBLIC "-//W3C//DTD SVG 1.1//EN" "http://www.w3.org/Graphics/SVG/1.1/DTD/svg11.dtd"><svg t="1634312160062" class="icon" viewBox="0 0 1820 1024" version="1.1" xmlns="http://www.w3.org/2000/svg" p-id="21817" xmlns:xlink="http://www.w3.org/1999/xlink" width="227.5" height="128"><defs><style type="text/css"></style></defs><path d="M642.654815 584.628148c-13.397333 0-24.272593-10.856296-24.272593-24.272592V438.992593c0-13.397333 10.875259-24.272593 24.272593-24.272593s24.272593 10.875259 24.272592 24.272593v121.362963c0 13.425778-10.875259 24.272593-24.272592 24.272592z m0 0" p-id="21818"></path><path d="M1176.651852 827.354074H691.2c-40.144593 0-72.817778-32.426667-72.817778-72.315259V705.991111c0-13.425778 10.875259-24.272593 24.272593-24.272592s24.272593 10.846815 24.272592 24.272592v49.047704c0 13.131852 10.903704 23.760593 24.272593 23.760592h485.451852c13.397333 0 24.272593-10.875259 24.272592-24.272592v-485.451852c0-13.37837-10.875259-24.272593-24.272592-24.272593H691.2c-14.08 0-24.272593 7.698963-24.272593 12.913778v35.631408c0 13.397333-10.875259 24.272593-24.272592 24.272592s-24.272593-10.875259-24.272593-24.272592v-35.631408c0-33.886815 32.673185-61.458963 72.817778-61.458963h485.451852c40.144593 0 72.817778 32.673185 72.817778 72.817778v485.451852c0 40.154074-32.673185 72.827259-72.817778 72.827259z m0 0" p-id="21819"></path><path d="M666.927407 390.447407h-72.817777c-13.397333 0-24.272593-10.875259-24.272593-24.272592s10.875259-24.272593 24.272593-24.272593h72.817777c13.397333 0 24.272593 10.875259 24.272593 24.272593s-10.875259 24.272593-24.272593 24.272592z m0 0M666.927407 657.445926h-72.817777c-13.397333 0-24.272593-10.846815-24.272593-24.272593s10.875259-24.272593 24.272593-24.272592h72.817777c13.397333 0 24.272593 10.856296 24.272593 24.272592s-10.875259 24.272593-24.272593 24.272593z m0 0M763.600593 731.012741c-11.036444 0-21.020444-7.566222-23.618371-18.763852-3.034074-13.056 5.072593-26.093037 18.157037-29.127111 3.441778-0.796444 74.183111-17.189926 127.241482-23.182222v-15.189334C834.455704 601.059556 812.562963 538.917926 812.562963 440.007111c0-96.967111 49.009778-146.147556 145.635556-146.147555 120.367407 0 145.635556 79.198815 145.635555 145.635555 0 105.434074-50.24237 169.301333-96.483555 205.710222l0.170666 15.056593c52.54637 6.475852 122.500741 22.063407 125.895111 22.812444 13.084444 2.910815 21.31437 15.900444 18.375111 28.984889-2.891852 13.056-15.701333 21.409185-28.984888 18.375111-0.900741-0.18963-92.425481-20.603259-141.018075-24.007111-12.619852-0.872296-22.433185-11.311407-22.575407-23.931259l-0.512-49.057185c-0.094815-7.936 3.688296-15.416889 10.17363-19.996445 39.395556-28.207407 86.414222-81.265778 86.414222-173.937777 0-68.958815-28.131556-97.09037-97.09037-97.090371-69.859556 0-97.09037 27.354074-97.090371 97.602371 0 89.230222 18.327704 139.595852 63.260445 173.89037a24.22803 24.22803 0 0 1 9.566814 19.275852v49.057185c0 12.961185-10.17363 23.637333-23.10637 24.244148-48.232296 2.304-140.752593 23.713185-141.681778 23.912296-1.848889 0.426667-3.697778 0.616296-5.546666 0.616297z m0 0" p-id="21820"></path></svg>