<?xml version="1.0" standalone="no"?><!DOCTYPE svg PUBLIC "-//W3C//DTD SVG 1.1//EN" "http://www.w3.org/Graphics/SVG/1.1/DTD/svg11.dtd"><svg t="1634399459455" class="icon" viewBox="0 0 1024 1024" version="1.1" xmlns="http://www.w3.org/2000/svg" p-id="1327" xmlns:xlink="http://www.w3.org/1999/xlink" width="128" height="128"><defs><style type="text/css"></style></defs><path d="M592 252.06H432a20 20 0 0 0 0 40h160a20 20 0 0 0 0-40z" fill="" p-id="1328"></path><path d="M765.95 792V192h-40v0.06h-427.9V192h-40v600h-60v40h160v-40h-60V232.06h427.9V792h-60v40h160v-40h-60z" fill="" p-id="1329"></path><path d="M427.59 379.97h40v264.06h-40z" fill="" p-id="1330"></path><path d="M512.59 464.97m-65 0a65 65 0 1 0 130 0 65 65 0 1 0-130 0Z" fill="#CCCCCC" p-id="1331"></path><path d="M512.59 420a45 45 0 1 1-45 45 45.05 45.05 0 0 1 45-45m0-40a85 85 0 1 0 85 85 85 85 0 0 0-85-85z" fill="" p-id="1332"></path></svg>