<?xml version="1.0" standalone="no"?><!DOCTYPE svg PUBLIC "-//W3C//DTD SVG 1.1//EN" "http://www.w3.org/Graphics/SVG/1.1/DTD/svg11.dtd"><svg t="1634308503529" class="icon" viewBox="0 0 1024 1024" version="1.1" xmlns="http://www.w3.org/2000/svg" p-id="13471" width="128" height="128" xmlns:xlink="http://www.w3.org/1999/xlink"><defs><style type="text/css"></style></defs><path d="M399.36 327.68h225.28c11.264 0 20.48-9.216 20.48-20.48v-40.96c0-33.792-27.648-61.44-61.44-61.44H440.32c-33.792 0-61.44 27.648-61.44 61.44v40.96c0 11.264 9.216 20.48 20.48 20.48z m337.92-71.68h-20.48c-6.144 0-10.24 4.096-10.24 10.24v40.96c0 45.056-36.864 81.92-81.92 81.92H399.36c-45.056 0-81.92-36.864-81.92-81.92v-40.96c0-6.144-4.096-10.24-10.24-10.24h-20.48c-33.792 0-61.44 27.648-61.44 61.44v440.32c0 33.792 27.648 61.44 61.44 61.44h450.56c33.792 0 61.44-27.648 61.44-61.44V317.44c0-33.792-27.648-61.44-61.44-61.44zM399.36 696.32c0 11.264-9.216 20.48-20.48 20.48h-20.48c-11.264 0-20.48-9.216-20.48-20.48v-20.48c0-11.264 9.216-20.48 20.48-20.48h20.48c11.264 0 20.48 9.216 20.48 20.48v20.48z m0-102.4c0 11.264-9.216 20.48-20.48 20.48h-20.48c-11.264 0-20.48-9.216-20.48-20.48v-20.48c0-11.264 9.216-20.48 20.48-20.48h20.48c11.264 0 20.48 9.216 20.48 20.48v20.48z m0-102.4c0 11.264-9.216 20.48-20.48 20.48h-20.48c-11.264 0-20.48-9.216-20.48-20.48v-20.48c0-11.264 9.216-20.48 20.48-20.48h20.48c11.264 0 20.48 9.216 20.48 20.48v20.48z m286.72 204.8c0 11.264-9.216 20.48-20.48 20.48H460.8c-11.264 0-20.48-9.216-20.48-20.48v-20.48c0-11.264 9.216-20.48 20.48-20.48h204.8c11.264 0 20.48 9.216 20.48 20.48v20.48z m0-102.4c0 11.264-9.216 20.48-20.48 20.48H460.8c-11.264 0-20.48-9.216-20.48-20.48v-20.48c0-11.264 9.216-20.48 20.48-20.48h204.8c11.264 0 20.48 9.216 20.48 20.48v20.48z m0-102.4c0 11.264-9.216 20.48-20.48 20.48H460.8c-11.264 0-20.48-9.216-20.48-20.48v-20.48c0-11.264 9.216-20.48 20.48-20.48h204.8c11.264 0 20.48 9.216 20.48 20.48v20.48z" p-id="13472" fill="#34bfa3"></path></svg>